<?xml version="1.0" encoding="utf-8"?>
<!-- Generator: Adobe Illustrator 17.0.2, SVG Export Plug-In . SVG Version: 6.00 Build 0)  -->
<!DOCTYPE svg PUBLIC "-//W3C//DTD SVG 1.1//EN" "http://www.w3.org/Graphics/SVG/1.1/DTD/svg11.dtd">
<svg version="1.1" id="Layer_1" xmlns="http://www.w3.org/2000/svg" xmlns:xlink="http://www.w3.org/1999/xlink" x="0px" y="0px"
	 width="32px" height="32px" viewBox="0 0 32 32" enable-background="new 0 0 32 32" xml:space="preserve">
<path fill="#1C1C1C" d="M31.597,30.89L19.115,18.408C20.901,16.452,22,13.857,22,11c0-6.075-4.925-11-11-11S0,4.925,0,11
	s4.925,11,11,11c2.858,0,5.452-1.099,7.408-2.885L30.89,31.597c0.13,0.13,0.341,0.13,0.471,0l0.236-0.236
	C31.727,31.231,31.727,31.02,31.597,30.89z M1,11C1,5.477,5.477,1,11,1s10,4.477,10,10c0,5.523-4.477,10-10,10S1,16.523,1,11z"/>
</svg>
